<mxfile host="app.diagrams.net" modified="2024-06-06T04:20:32.120Z" agent="Mozilla/5.0 (Macintosh; Intel Mac OS X 10_15_7) AppleWebKit/605.1.15 (KHTML, like Gecko) Version/17.0 Safari/605.1.15" etag="ra4SX4oycA5QC3KbQqTd" version="24.4.13" type="device">
  <diagram name="Page-1" id="3CgZwiM-ZLyAC3eLC9qf">
    <mxGraphModel dx="984" dy="560" grid="1" gridSize="10" guides="1" tooltips="1" connect="1" arrows="1" fold="1" page="1" pageScale="1" pageWidth="850" pageHeight="1100" math="0" shadow="0">
      <root>
        <mxCell id="0" />
        <mxCell id="1" parent="0" />
        <mxCell id="YkhCJuev5aJ15JWMH5Ye-1" value="Bluetooth Service Class&amp;nbsp;&lt;div&gt;- wrapper functions for&amp;nbsp;&lt;/div&gt;&lt;div&gt;react-native-ble-manager library&lt;/div&gt;" style="rounded=0;whiteSpace=wrap;html=1;" vertex="1" parent="1">
          <mxGeometry x="40" y="40" width="180" height="80" as="geometry" />
        </mxCell>
        <mxCell id="YkhCJuev5aJ15JWMH5Ye-15" style="edgeStyle=orthogonalEdgeStyle;rounded=0;orthogonalLoop=1;jettySize=auto;html=1;entryX=1;entryY=0.5;entryDx=0;entryDy=0;" edge="1" parent="1" source="YkhCJuev5aJ15JWMH5Ye-2" target="YkhCJuev5aJ15JWMH5Ye-1">
          <mxGeometry relative="1" as="geometry" />
        </mxCell>
        <mxCell id="YkhCJuev5aJ15JWMH5Ye-2" value="Bluetooth Context (React Context API)&amp;nbsp;&lt;div&gt;- holds state information&amp;nbsp;&lt;/div&gt;&lt;div&gt;for BLE&lt;/div&gt;" style="rounded=0;whiteSpace=wrap;html=1;" vertex="1" parent="1">
          <mxGeometry x="280" y="40" width="180" height="80" as="geometry" />
        </mxCell>
        <mxCell id="YkhCJuev5aJ15JWMH5Ye-12" style="edgeStyle=orthogonalEdgeStyle;rounded=0;orthogonalLoop=1;jettySize=auto;html=1;entryX=0.5;entryY=1;entryDx=0;entryDy=0;" edge="1" parent="1" source="YkhCJuev5aJ15JWMH5Ye-3" target="YkhCJuev5aJ15JWMH5Ye-7">
          <mxGeometry relative="1" as="geometry" />
        </mxCell>
        <mxCell id="YkhCJuev5aJ15JWMH5Ye-13" style="edgeStyle=orthogonalEdgeStyle;rounded=0;orthogonalLoop=1;jettySize=auto;html=1;exitX=0.25;exitY=0;exitDx=0;exitDy=0;entryX=0.25;entryY=1;entryDx=0;entryDy=0;" edge="1" parent="1" source="YkhCJuev5aJ15JWMH5Ye-3" target="YkhCJuev5aJ15JWMH5Ye-4">
          <mxGeometry relative="1" as="geometry" />
        </mxCell>
        <mxCell id="YkhCJuev5aJ15JWMH5Ye-3" value="User Interface Components and Pages" style="rounded=0;whiteSpace=wrap;html=1;" vertex="1" parent="1">
          <mxGeometry x="280" y="440" width="180" height="80" as="geometry" />
        </mxCell>
        <mxCell id="YkhCJuev5aJ15JWMH5Ye-14" style="edgeStyle=orthogonalEdgeStyle;rounded=0;orthogonalLoop=1;jettySize=auto;html=1;entryX=0.5;entryY=1;entryDx=0;entryDy=0;" edge="1" parent="1" source="YkhCJuev5aJ15JWMH5Ye-4" target="YkhCJuev5aJ15JWMH5Ye-2">
          <mxGeometry relative="1" as="geometry" />
        </mxCell>
        <mxCell id="YkhCJuev5aJ15JWMH5Ye-4" value="Bluetooth Context Provider&lt;div&gt;- exposes Bluetooth Context attributes to child components&lt;/div&gt;" style="rounded=0;whiteSpace=wrap;html=1;" vertex="1" parent="1">
          <mxGeometry x="280" y="180" width="180" height="80" as="geometry" />
        </mxCell>
        <mxCell id="YkhCJuev5aJ15JWMH5Ye-6" value="Module Context (React&amp;nbsp;&lt;div&gt;Context API) - holds app configuration info&lt;/div&gt;" style="rounded=0;whiteSpace=wrap;html=1;" vertex="1" parent="1">
          <mxGeometry x="520" y="180" width="180" height="80" as="geometry" />
        </mxCell>
        <mxCell id="YkhCJuev5aJ15JWMH5Ye-10" value="" style="edgeStyle=orthogonalEdgeStyle;rounded=0;orthogonalLoop=1;jettySize=auto;html=1;" edge="1" parent="1" source="YkhCJuev5aJ15JWMH5Ye-7" target="YkhCJuev5aJ15JWMH5Ye-6">
          <mxGeometry relative="1" as="geometry" />
        </mxCell>
        <mxCell id="YkhCJuev5aJ15JWMH5Ye-11" style="edgeStyle=orthogonalEdgeStyle;rounded=0;orthogonalLoop=1;jettySize=auto;html=1;entryX=0.75;entryY=1;entryDx=0;entryDy=0;" edge="1" parent="1" source="YkhCJuev5aJ15JWMH5Ye-7" target="YkhCJuev5aJ15JWMH5Ye-4">
          <mxGeometry relative="1" as="geometry" />
        </mxCell>
        <mxCell id="YkhCJuev5aJ15JWMH5Ye-7" value="Module Context Provider&lt;div&gt;- calls Bluetooth Provider functions with app configs and handles changes in user&#39;s state&lt;/div&gt;" style="rounded=0;whiteSpace=wrap;html=1;" vertex="1" parent="1">
          <mxGeometry x="520" y="320" width="180" height="80" as="geometry" />
        </mxCell>
      </root>
    </mxGraphModel>
  </diagram>
</mxfile>
